<mxfile host="app.diagrams.net" modified="2023-08-30T16:13:22.461Z" agent="Mozilla/5.0 (X11; Linux x86_64) AppleWebKit/537.36 (KHTML, like Gecko) Chrome/115.0.0.0 Safari/537.36" etag="cgA5ZdWhoX4YxXkae3iR" version="21.7.1" type="github">
  <diagram name="PÃ¡gina-1" id="d5EeRuRFpMiQF5zEXvW7">
    <mxGraphModel dx="1497" dy="394" grid="1" gridSize="10" guides="1" tooltips="1" connect="1" arrows="1" fold="1" page="1" pageScale="1" pageWidth="827" pageHeight="1169" math="0" shadow="0">
      <root>
        <mxCell id="0" />
        <mxCell id="1" parent="0" />
        <mxCell id="A8T605t0fPFxCtPTawqi-1" value="" style="swimlane;startSize=0;" vertex="1" parent="1">
          <mxGeometry x="-40" y="80" width="1560" height="590" as="geometry" />
        </mxCell>
        <mxCell id="A8T605t0fPFxCtPTawqi-38" value="Login CSR" style="endArrow=classic;html=1;rounded=0;verticalAlign=bottom;align=right;" edge="1" parent="A8T605t0fPFxCtPTawqi-1">
          <mxGeometry width="50" height="50" relative="1" as="geometry">
            <mxPoint x="140" y="80" as="sourcePoint" />
            <mxPoint x="340" y="80" as="targetPoint" />
          </mxGeometry>
        </mxCell>
        <mxCell id="A8T605t0fPFxCtPTawqi-2" value="WomCX - Fibra" style="rounded=0;whiteSpace=wrap;html=1;" vertex="1" parent="1">
          <mxGeometry x="40" y="10" width="120" height="60" as="geometry" />
        </mxCell>
        <mxCell id="A8T605t0fPFxCtPTawqi-3" value="MicroFront Excecutive Login" style="rounded=0;whiteSpace=wrap;html=1;" vertex="1" parent="1">
          <mxGeometry x="240" y="10" width="120" height="60" as="geometry" />
        </mxCell>
        <mxCell id="A8T605t0fPFxCtPTawqi-4" value="BFF Executive Login" style="rounded=0;whiteSpace=wrap;html=1;" vertex="1" parent="1">
          <mxGeometry x="390" y="10" width="120" height="60" as="geometry" />
        </mxCell>
        <mxCell id="A8T605t0fPFxCtPTawqi-5" value="CORE SRV40180" style="rounded=0;whiteSpace=wrap;html=1;" vertex="1" parent="1">
          <mxGeometry x="580" y="10" width="120" height="60" as="geometry" />
        </mxCell>
        <mxCell id="A8T605t0fPFxCtPTawqi-6" value="CORE SRV40433" style="rounded=0;whiteSpace=wrap;html=1;" vertex="1" parent="1">
          <mxGeometry x="720" y="10" width="120" height="60" as="geometry" />
        </mxCell>
        <mxCell id="A8T605t0fPFxCtPTawqi-7" value="ZSmart" style="rounded=0;whiteSpace=wrap;html=1;" vertex="1" parent="1">
          <mxGeometry x="920" y="10" width="120" height="60" as="geometry" />
        </mxCell>
        <mxCell id="A8T605t0fPFxCtPTawqi-8" value="EnTrust" style="rounded=0;whiteSpace=wrap;html=1;" vertex="1" parent="1">
          <mxGeometry x="1060" y="10" width="120" height="60" as="geometry" />
        </mxCell>
        <mxCell id="A8T605t0fPFxCtPTawqi-9" value="LDAP" style="rounded=0;whiteSpace=wrap;html=1;" vertex="1" parent="1">
          <mxGeometry x="1250" y="10" width="120" height="60" as="geometry" />
        </mxCell>
        <mxCell id="A8T605t0fPFxCtPTawqi-10" value="Red Hat SSO Cloud" style="rounded=0;whiteSpace=wrap;html=1;" vertex="1" parent="1">
          <mxGeometry x="1400" y="10" width="120" height="60" as="geometry" />
        </mxCell>
        <mxCell id="A8T605t0fPFxCtPTawqi-11" value="WomCX - Fibra" style="rounded=0;whiteSpace=wrap;html=1;" vertex="1" parent="1">
          <mxGeometry x="40" y="690" width="120" height="60" as="geometry" />
        </mxCell>
        <mxCell id="A8T605t0fPFxCtPTawqi-12" value="MicroFront Excecutive Login" style="rounded=0;whiteSpace=wrap;html=1;" vertex="1" parent="1">
          <mxGeometry x="240" y="690" width="120" height="60" as="geometry" />
        </mxCell>
        <mxCell id="A8T605t0fPFxCtPTawqi-13" value="BFF Executive Login" style="rounded=0;whiteSpace=wrap;html=1;" vertex="1" parent="1">
          <mxGeometry x="390" y="690" width="120" height="60" as="geometry" />
        </mxCell>
        <mxCell id="A8T605t0fPFxCtPTawqi-14" value="CORE SRV40180" style="rounded=0;whiteSpace=wrap;html=1;" vertex="1" parent="1">
          <mxGeometry x="580" y="690" width="120" height="60" as="geometry" />
        </mxCell>
        <mxCell id="A8T605t0fPFxCtPTawqi-15" value="CORE SRV40433" style="rounded=0;whiteSpace=wrap;html=1;" vertex="1" parent="1">
          <mxGeometry x="720" y="690" width="120" height="60" as="geometry" />
        </mxCell>
        <mxCell id="A8T605t0fPFxCtPTawqi-16" value="ZSmart" style="rounded=0;whiteSpace=wrap;html=1;" vertex="1" parent="1">
          <mxGeometry x="920" y="690" width="120" height="60" as="geometry" />
        </mxCell>
        <mxCell id="A8T605t0fPFxCtPTawqi-17" value="EnTrust" style="rounded=0;whiteSpace=wrap;html=1;" vertex="1" parent="1">
          <mxGeometry x="1060" y="690" width="120" height="60" as="geometry" />
        </mxCell>
        <mxCell id="A8T605t0fPFxCtPTawqi-18" value="LDAP" style="rounded=0;whiteSpace=wrap;html=1;" vertex="1" parent="1">
          <mxGeometry x="1250" y="690" width="120" height="60" as="geometry" />
        </mxCell>
        <mxCell id="A8T605t0fPFxCtPTawqi-19" value="Red Hat SSO Cloud" style="rounded=0;whiteSpace=wrap;html=1;" vertex="1" parent="1">
          <mxGeometry x="1400" y="690" width="120" height="60" as="geometry" />
        </mxCell>
        <mxCell id="A8T605t0fPFxCtPTawqi-20" value="" style="endArrow=none;dashed=1;html=1;rounded=0;entryX=0.5;entryY=1;entryDx=0;entryDy=0;exitX=0.5;exitY=0;exitDx=0;exitDy=0;" edge="1" parent="1" source="A8T605t0fPFxCtPTawqi-11" target="A8T605t0fPFxCtPTawqi-2">
          <mxGeometry width="50" height="50" relative="1" as="geometry">
            <mxPoint x="830" y="280" as="sourcePoint" />
            <mxPoint x="880" y="230" as="targetPoint" />
          </mxGeometry>
        </mxCell>
        <mxCell id="A8T605t0fPFxCtPTawqi-21" value="" style="endArrow=none;dashed=1;html=1;rounded=0;entryX=0.5;entryY=1;entryDx=0;entryDy=0;exitX=0.5;exitY=0;exitDx=0;exitDy=0;" edge="1" parent="1" source="A8T605t0fPFxCtPTawqi-12" target="A8T605t0fPFxCtPTawqi-3">
          <mxGeometry width="50" height="50" relative="1" as="geometry">
            <mxPoint x="299.16999999999996" y="685" as="sourcePoint" />
            <mxPoint x="299.16999999999996" y="65" as="targetPoint" />
          </mxGeometry>
        </mxCell>
        <mxCell id="A8T605t0fPFxCtPTawqi-22" value="" style="endArrow=none;dashed=1;html=1;rounded=0;entryX=0.5;entryY=1;entryDx=0;entryDy=0;exitX=0.5;exitY=0;exitDx=0;exitDy=0;" edge="1" parent="1" source="A8T605t0fPFxCtPTawqi-13" target="A8T605t0fPFxCtPTawqi-4">
          <mxGeometry width="50" height="50" relative="1" as="geometry">
            <mxPoint x="120" y="710" as="sourcePoint" />
            <mxPoint x="120" y="90" as="targetPoint" />
          </mxGeometry>
        </mxCell>
        <mxCell id="A8T605t0fPFxCtPTawqi-23" value="" style="endArrow=none;dashed=1;html=1;rounded=0;entryX=0.5;entryY=1;entryDx=0;entryDy=0;exitX=0.5;exitY=0;exitDx=0;exitDy=0;" edge="1" parent="1" source="A8T605t0fPFxCtPTawqi-14" target="A8T605t0fPFxCtPTawqi-5">
          <mxGeometry width="50" height="50" relative="1" as="geometry">
            <mxPoint x="130" y="720" as="sourcePoint" />
            <mxPoint x="130" y="100" as="targetPoint" />
          </mxGeometry>
        </mxCell>
        <mxCell id="A8T605t0fPFxCtPTawqi-24" value="" style="endArrow=none;dashed=1;html=1;rounded=0;entryX=0.5;entryY=1;entryDx=0;entryDy=0;exitX=0.5;exitY=0;exitDx=0;exitDy=0;" edge="1" parent="1" source="A8T605t0fPFxCtPTawqi-15" target="A8T605t0fPFxCtPTawqi-6">
          <mxGeometry width="50" height="50" relative="1" as="geometry">
            <mxPoint x="140" y="730" as="sourcePoint" />
            <mxPoint x="140" y="110" as="targetPoint" />
          </mxGeometry>
        </mxCell>
        <mxCell id="A8T605t0fPFxCtPTawqi-25" value="" style="endArrow=none;dashed=1;html=1;rounded=0;entryX=0.5;entryY=1;entryDx=0;entryDy=0;exitX=0.5;exitY=0;exitDx=0;exitDy=0;" edge="1" parent="1" source="A8T605t0fPFxCtPTawqi-16" target="A8T605t0fPFxCtPTawqi-7">
          <mxGeometry width="50" height="50" relative="1" as="geometry">
            <mxPoint x="790" y="700" as="sourcePoint" />
            <mxPoint x="790" y="80" as="targetPoint" />
          </mxGeometry>
        </mxCell>
        <mxCell id="A8T605t0fPFxCtPTawqi-26" value="" style="endArrow=none;dashed=1;html=1;rounded=0;entryX=0.5;entryY=1;entryDx=0;entryDy=0;" edge="1" parent="1" source="A8T605t0fPFxCtPTawqi-17" target="A8T605t0fPFxCtPTawqi-8">
          <mxGeometry width="50" height="50" relative="1" as="geometry">
            <mxPoint x="990" y="700" as="sourcePoint" />
            <mxPoint x="990" y="80" as="targetPoint" />
          </mxGeometry>
        </mxCell>
        <mxCell id="A8T605t0fPFxCtPTawqi-27" value="" style="endArrow=none;dashed=1;html=1;rounded=0;entryX=0.5;entryY=1;entryDx=0;entryDy=0;exitX=0.5;exitY=0;exitDx=0;exitDy=0;" edge="1" parent="1" source="A8T605t0fPFxCtPTawqi-18" target="A8T605t0fPFxCtPTawqi-9">
          <mxGeometry width="50" height="50" relative="1" as="geometry">
            <mxPoint x="1130" y="700" as="sourcePoint" />
            <mxPoint x="1130" y="80" as="targetPoint" />
          </mxGeometry>
        </mxCell>
        <mxCell id="A8T605t0fPFxCtPTawqi-28" value="" style="endArrow=none;dashed=1;html=1;rounded=0;entryX=0.5;entryY=1;entryDx=0;entryDy=0;" edge="1" parent="1" source="A8T605t0fPFxCtPTawqi-19" target="A8T605t0fPFxCtPTawqi-10">
          <mxGeometry width="50" height="50" relative="1" as="geometry">
            <mxPoint x="1320" y="700" as="sourcePoint" />
            <mxPoint x="1320" y="80" as="targetPoint" />
          </mxGeometry>
        </mxCell>
        <mxCell id="A8T605t0fPFxCtPTawqi-29" value="CSR" style="shape=umlActor;verticalLabelPosition=bottom;verticalAlign=top;html=1;outlineConnect=0;" vertex="1" parent="1">
          <mxGeometry x="-20" width="30" height="60" as="geometry" />
        </mxCell>
        <mxCell id="A8T605t0fPFxCtPTawqi-34" value="CSR" style="shape=umlActor;verticalLabelPosition=bottom;verticalAlign=top;html=1;outlineConnect=0;" vertex="1" parent="1">
          <mxGeometry x="-20" y="690" width="30" height="60" as="geometry" />
        </mxCell>
        <mxCell id="A8T605t0fPFxCtPTawqi-35" value="" style="endArrow=none;dashed=1;html=1;rounded=0;entryX=0.5;entryY=0.5;entryDx=0;entryDy=0;exitX=0.5;exitY=0.5;exitDx=0;exitDy=0;entryPerimeter=0;exitPerimeter=0;" edge="1" parent="1" source="A8T605t0fPFxCtPTawqi-34" target="A8T605t0fPFxCtPTawqi-29">
          <mxGeometry width="50" height="50" relative="1" as="geometry">
            <mxPoint x="110" y="700" as="sourcePoint" />
            <mxPoint x="110" y="80" as="targetPoint" />
          </mxGeometry>
        </mxCell>
        <mxCell id="A8T605t0fPFxCtPTawqi-36" value="Login CSR" style="endArrow=classic;html=1;rounded=0;verticalAlign=bottom;align=right;" edge="1" parent="1">
          <mxGeometry width="50" height="50" relative="1" as="geometry">
            <mxPoint y="120" as="sourcePoint" />
            <mxPoint x="100" y="120" as="targetPoint" />
          </mxGeometry>
        </mxCell>
      </root>
    </mxGraphModel>
  </diagram>
</mxfile>
